<svg xmlns="http://www.w3.org/2000/svg" xmlns:xlink="http://www.w3.org/1999/xlink" width="1080" zoomAndPan="magnify" viewBox="0 0 810 809.999993" height="1080" preserveAspectRatio="xMidYMid meet" version="1.0"><defs><clipPath id="9fce355bf3"><path d="M 242 533 L 320 533 L 320 740.273438 L 242 740.273438 Z M 242 533 " clip-rule="nonzero"/></clipPath><clipPath id="4ad413afa6"><path d="M 724 507 L 772.925781 507 L 772.925781 562 L 724 562 Z M 724 507 " clip-rule="nonzero"/></clipPath></defs><path fill="#194c71" d="M 173.117188 361.195312 C 159.871094 372.640625 147.117188 376.648438 135.261719 374.441406 C 122.425781 372.152344 110.980469 362.996094 101.085938 350.242188 C 75.738281 317.132812 61.921875 260.070312 70.261719 216.824219 C 71.160156 212.082031 68.054688 207.503906 63.3125 206.605469 C 58.570312 205.625 53.992188 208.730469 53.089844 213.472656 C 43.851562 261.296875 59.222656 324.328125 87.269531 360.871094 C 100.023438 377.464844 115.476562 388.664062 132.15625 391.691406 C 148.425781 394.632812 166.25 390.136719 184.484375 374.441406 C 188.164062 371.253906 188.570312 365.773438 185.464844 362.097656 C 182.277344 358.417969 176.714844 358.007812 173.117188 361.195312 " fill-opacity="1" fill-rule="evenodd"/><g clip-path="url(#9fce355bf3)"><path fill="#194c71" d="M 275.8125 714.03125 C 274.339844 715.257812 271.722656 717.300781 269.84375 718.445312 C 264.609375 721.390625 259.296875 723.351562 259.296875 723.351562 C 254.796875 725.070312 252.507812 730.136719 254.226562 734.632812 C 255.941406 739.128906 261.011719 741.417969 265.507812 739.703125 C 265.507812 739.703125 273.847656 736.59375 280.960938 732.097656 C 285.378906 729.320312 289.21875 726.050781 291.429688 722.78125 C 294.78125 717.710938 295.1875 712.480469 292.164062 707.410156 C 272.214844 673.8125 253.652344 631.628906 262.15625 597.539062 C 267.226562 577.101562 282.761719 560.339844 313.832031 550.367188 C 318.410156 548.894531 320.945312 543.992188 319.472656 539.414062 C 318 534.835938 313.09375 532.300781 308.515625 533.773438 C 269.925781 546.035156 251.527344 567.945312 245.152344 593.285156 C 235.910156 630.566406 254.0625 676.917969 275.8125 714.03125 " fill-opacity="1" fill-rule="evenodd"/></g><path fill="#194c71" d="M 411.617188 578.082031 C 447.921875 613.640625 466.316406 638.003906 473.757812 654.84375 C 477.519531 663.59375 478.335938 669.476562 476.128906 673.484375 C 474.003906 677.324219 469.421875 678.714844 465.171875 679.535156 C 456.503906 681.332031 447.675781 680.105469 447.675781 680.105469 C 444.8125 679.695312 441.953125 680.679688 440.070312 682.804688 C 438.109375 684.847656 437.292969 687.707031 437.863281 690.570312 L 443.914062 719.019531 C 444.894531 723.761719 449.554688 726.703125 454.296875 725.722656 C 458.957031 724.742188 461.984375 720.164062 461.003906 715.421875 L 457.324219 697.925781 C 462.636719 697.765625 468.933594 697.027344 474.65625 695.066406 C 485.941406 691.222656 495.097656 683.210938 494.6875 667.597656 C 494.523438 660.8125 492.234375 652.066406 486.429688 641.109375 C 477.109375 623.535156 458.140625 599.171875 423.882812 565.574219 C 420.449219 562.222656 414.886719 562.304688 411.535156 565.738281 C 408.183594 569.171875 408.183594 574.730469 411.617188 578.082031 " fill-opacity="1" fill-rule="evenodd"/><path fill="#194c71" d="M 646.683594 486.519531 C 642.351562 514.722656 645.539062 549.46875 655.023438 573.257812 C 661.726562 590.097656 672.03125 601.460938 683.96875 604.324219 C 692.550781 606.367188 702.527344 604.566406 713.402344 596.230469 C 723.949219 588.136719 735.96875 573.339844 749.050781 549.304688 C 751.339844 545.054688 749.785156 539.738281 745.535156 537.449219 C 741.28125 535.160156 735.96875 536.714844 733.679688 540.964844 C 722.230469 561.976562 712.011719 575.300781 702.773438 582.332031 C 697.210938 586.582031 692.46875 588.382812 688.054688 587.320312 C 680.613281 585.519531 675.464844 577.261719 671.292969 566.800781 C 662.789062 545.460938 660.09375 514.398438 663.9375 489.136719 C 664.671875 484.3125 661.402344 479.898438 656.578125 479.164062 C 651.835938 478.425781 647.417969 481.695312 646.683594 486.519531 " fill-opacity="1" fill-rule="evenodd"/><path fill="#ffce33" d="M 475.71875 67.140625 C 630.984375 92.566406 736.457031 239.226562 711.113281 394.46875 C 685.683594 549.714844 539.003906 655.171875 383.738281 629.746094 C 228.472656 604.40625 123 457.746094 148.34375 302.5 C 173.773438 147.253906 320.453125 41.796875 475.71875 67.140625 " fill-opacity="1" fill-rule="evenodd"/><path fill="#ffdd6f" d="M 707.269531 283.207031 C 712.664062 305.933594 715.28125 329.640625 714.792969 353.757812 L 186.199219 496.65625 L 186.035156 496.332031 C 179.90625 486.195312 174.34375 475.648438 169.519531 464.855469 C 164.777344 454.230469 160.609375 443.355469 157.175781 432.238281 L 157.09375 431.992188 Z M 671.703125 197.859375 C 684.210938 217.886719 694.269531 239.550781 701.546875 262.359375 L 151.535156 411.066406 C 146.382812 388.175781 144.011719 364.464844 144.746094 340.269531 L 671.703125 197.859375 " fill-opacity="1" fill-rule="evenodd"/><path fill="#ffb204" d="M 462.636719 146.929688 C 573.914062 165.078125 649.464844 270.207031 631.3125 381.390625 C 613.078125 492.652344 508.015625 568.1875 396.820312 550.039062 C 285.542969 531.808594 209.992188 426.761719 228.144531 315.5 C 246.378906 204.316406 351.441406 128.699219 462.636719 146.929688 " fill-opacity="1" fill-rule="evenodd"/><path fill="#194c70" d="M 312.851562 303.644531 C 324.132812 305.605469 331.65625 316.398438 329.691406 327.597656 C 327.730469 338.878906 316.9375 346.398438 305.65625 344.4375 C 294.453125 342.476562 286.929688 331.683594 288.894531 320.484375 C 290.855469 309.203125 301.566406 301.683594 312.851562 303.644531 " fill-opacity="1" fill-rule="evenodd"/><path fill="#194c70" d="M 561.898438 348.117188 C 573.179688 350.078125 580.703125 360.871094 578.738281 372.070312 C 576.777344 383.351562 565.984375 390.871094 554.785156 388.910156 C 543.5 386.949219 535.976562 376.15625 537.941406 364.957031 C 539.902344 353.675781 550.695312 346.15625 561.898438 348.117188 " fill-opacity="1" fill-rule="evenodd"/><path fill="#194c70" d="M 492.398438 347.382812 C 479.808594 342.230469 451.761719 364.875 432.875 361.441406 C 415.378906 358.253906 378.996094 330.785156 364.359375 334.792969 C 348.90625 339.042969 342.9375 360.789062 338.277344 381.878906 C 330.835938 415.480469 357.082031 447.117188 417.832031 457.746094 C 456.421875 464.449219 485.121094 448.097656 505.152344 427.332031 C 516.683594 415.316406 531.152344 363.324219 492.398438 347.382812 " fill-opacity="1" fill-rule="evenodd"/><path fill="#ffffff" d="M 476.699219 354.246094 C 464.519531 355.882812 445.46875 369.125 431.976562 366.675781 C 419.222656 364.386719 394.773438 347.054688 380.140625 344.027344 C 379.8125 345.417969 379.730469 346.890625 379.566406 347.789062 C 378.667969 352.941406 378.503906 359.480469 384.800781 361.195312 C 386.761719 361.769531 388.480469 361.851562 390.195312 360.542969 C 390.359375 360.378906 391.421875 359.152344 392.078125 358.335938 C 392.160156 357.84375 392.324219 357.601562 392.566406 357.679688 C 392.566406 357.679688 392.402344 357.925781 392.078125 358.335938 C 391.75 360.050781 392.160156 364.628906 392.324219 364.957031 C 393.058594 367.410156 397.144531 368.882812 399.273438 369.699219 C 401.886719 370.679688 404.339844 370.351562 406.875 369.207031 C 407.9375 368.71875 408.59375 368.144531 409.492188 367.410156 C 409.902344 367 410.800781 365.609375 410.71875 366.183594 C 409.820312 371.007812 413.089844 377.054688 418.160156 378.527344 C 421.019531 379.34375 423.148438 378.527344 425.027344 376.238281 C 425.4375 375.832031 427.480469 372.804688 428.132812 372.886719 C 429.441406 373.132812 428.214844 375.75 428.789062 376.894531 C 430.097656 379.261719 432.140625 380.980469 434.839844 381.226562 C 438.191406 381.632812 442.195312 381.472656 444.648438 378.691406 C 445.792969 377.464844 447.101562 375.667969 447.757812 374.113281 C 447.839844 373.949219 448.574219 371.171875 448.820312 371.253906 C 448.984375 371.253906 449.964844 373.214844 450.128906 373.296875 C 451.601562 374.765625 453.316406 376.238281 455.605469 375.910156 C 458.792969 375.421875 460.921875 373.460938 462.230469 370.515625 C 462.800781 369.207031 463.375 366.429688 463.375 366.429688 C 463.375 366.429688 466.152344 371.414062 470.976562 370.433594 C 477.273438 369.207031 476.78125 364.058594 477.027344 360.214844 C 477.109375 358.664062 476.699219 354.246094 476.699219 354.246094 " fill-opacity="1" fill-rule="evenodd"/><path fill="#ff6161" d="M 367.304688 427.578125 C 377.03125 407.550781 401.234375 395.777344 426.90625 400.273438 C 449.964844 404.28125 467.460938 420.464844 472.367188 439.757812 C 457.976562 448.097656 440.234375 452.59375 419.058594 448.914062 C 396 444.910156 378.75 437.304688 367.304688 427.578125 " fill-opacity="1" fill-rule="evenodd"/><path fill="#ff6161" d="M 557.972656 400.683594 C 573.507812 403.214844 584.871094 412.535156 583.316406 421.609375 C 581.929688 430.601562 568.109375 435.917969 552.65625 433.382812 C 537.203125 430.847656 525.839844 421.445312 527.3125 412.453125 C 528.78125 403.378906 542.519531 398.148438 557.972656 400.683594 " fill-opacity="1" fill-rule="evenodd"/><path fill="#ff6161" d="M 301.074219 358.664062 C 316.527344 361.195312 327.894531 370.597656 326.421875 379.589844 C 324.949219 388.582031 311.214844 393.898438 295.761719 391.363281 C 280.308594 388.828125 268.945312 379.425781 270.332031 370.433594 C 271.886719 361.441406 285.621094 356.128906 301.074219 358.664062 " fill-opacity="1" fill-rule="evenodd"/><path fill="#194c71" d="M 61.675781 172.515625 C 75.578125 172.515625 86.777344 186.988281 86.777344 204.808594 C 86.777344 222.628906 75.578125 237.097656 61.675781 237.097656 C 47.859375 237.097656 36.574219 222.628906 36.574219 204.808594 C 36.574219 186.988281 47.859375 172.515625 61.675781 172.515625 " fill-opacity="1" fill-rule="evenodd"/><g clip-path="url(#4ad413afa6)"><path fill="#194c71" d="M 763.03125 510.554688 C 773.824219 517.09375 776.113281 533.199219 768.101562 546.523438 C 760.085938 559.933594 744.796875 565.492188 734.003906 559.03125 C 723.132812 552.492188 720.84375 536.386719 728.855469 523.0625 C 736.867188 509.65625 752.15625 504.097656 763.03125 510.554688 " fill-opacity="1" fill-rule="evenodd"/></g></svg>